<svg xmlns="http://www.w3.org/2000/svg" xmlns:svg="http://www.w3.org/2000/svg" id="svg13826" width="68.165" height="66.143" version="1.1" viewBox="0 0 18.035 17.5"><metadata id="metadata13823"/><g id="layer1" transform="translate(-0.99262638,-1.174181)"><g id="g70" transform="matrix(1.0148887,0,0,1.0148887,16.902146,-2.698726)"><path id="path3055" d="m -6.8492015,4.2724668 a 1.1191255,1.1099671 0 0 0 -0.4288818,0.1085303 l -5.8524037,2.7963394 a 1.1191255,1.1099671 0 0 0 -0.605524,0.7529759 l -1.443828,6.2812846 a 1.1191255,1.1099671 0 0 0 0.151943,0.851028 1.1191255,1.1099671 0 0 0 0.06362,0.08832 l 4.0508,5.036555 a 1.1191255,1.1099671 0 0 0 0.874979,0.417654 l 6.4961011,-0.0015 a 1.1191255,1.1099671 0 0 0 0.8749788,-0.416906 L 1.3818872,15.149453 A 1.1191255,1.1099671 0 0 0 1.5981986,14.210104 L 0.15212657,7.9288154 A 1.1191255,1.1099671 0 0 0 -0.45339794,7.1758396 L -6.3065496,4.3809971 A 1.1191255,1.1099671 0 0 0 -6.8492015,4.2724668 Z" style="fill:#326ce5;fill-opacity:1;stroke:none;stroke-width:0;stroke-miterlimit:4;stroke-dasharray:none;stroke-opacity:1"/><path id="path3054-2-9" d="M -6.8523435,3.8176372 A 1.1814304,1.171762 0 0 0 -7.3044284,3.932904 l -6.1787426,2.9512758 a 1.1814304,1.171762 0 0 0 -0.639206,0.794891 l -1.523915,6.6308282 a 1.1814304,1.171762 0 0 0 0.160175,0.89893 1.1814304,1.171762 0 0 0 0.06736,0.09281 l 4.276094,5.317236 a 1.1814304,1.171762 0 0 0 0.92363,0.440858 l 6.8576188,-0.0015 a 1.1814304,1.171762 0 0 0 0.9236308,-0.44011 l 4.2745966,-5.317985 a 1.1814304,1.171762 0 0 0 0.228288,-0.990993 L 0.53894439,7.6775738 A 1.1814304,1.171762 0 0 0 -0.10026101,6.8834313 L -6.2790037,3.9321555 A 1.1814304,1.171762 0 0 0 -6.8523435,3.8176372 Z m 0.00299,0.4550789 a 1.1191255,1.1099671 0 0 1 0.5426517,0.1085303 l 5.85315169,2.7948425 A 1.1191255,1.1099671 0 0 1 0.15197811,7.9290648 L 1.598051,14.21035 a 1.1191255,1.1099671 0 0 1 -0.2163123,0.939348 l -4.0493032,5.037304 a 1.1191255,1.1099671 0 0 1 -0.8749789,0.416906 l -6.4961006,0.0015 a 1.1191255,1.1099671 0 0 1 -0.874979,-0.417652 l -4.0508,-5.036554 a 1.1191255,1.1099671 0 0 1 -0.06362,-0.08832 1.1191255,1.1099671 0 0 1 -0.151942,-0.851028 l 1.443827,-6.2812853 a 1.1191255,1.1099671 0 0 1 0.605524,-0.7529758 l 5.8524036,-2.7963395 a 1.1191255,1.1099671 0 0 1 0.4288819,-0.1085303 z" style="color:#000;font-style:normal;font-variant:normal;font-weight:400;font-stretch:normal;font-size:medium;line-height:normal;font-family:Sans;-inkscape-font-specification:Sans;text-indent:0;text-align:start;text-decoration:none;text-decoration-line:none;letter-spacing:normal;word-spacing:normal;text-transform:none;writing-mode:lr-tb;direction:ltr;baseline-shift:baseline;text-anchor:start;display:inline;overflow:visible;visibility:visible;fill:#fff;fill-opacity:1;fill-rule:nonzero;stroke:none;stroke-width:0;stroke-miterlimit:4;stroke-dasharray:none;marker:none;enable-background:accumulate"/></g><path style="fill:#fff;fill-opacity:1;stroke-width:.46185368" id="path7415" d="m 14.269566,9.6934441 -0.692781,0 0,-1.847416 c 0,-0.5080383 -0.415668,-0.9237063 -0.923706,-0.9237063 l -1.847416,0 0,-0.69278 c 0,-0.637359 -0.517275,-1.154636 -1.1546334,-1.154636 -0.6373578,0 -1.1546338,0.517277 -1.1546338,1.154636 l 0,0.69278 -1.847416,0 c -0.508038,0 -0.919089,0.415668 -0.919089,0.9237063 l 0,1.755045 0.688164,0 c 0.688161,0 1.247005,0.5588429 1.247005,1.2470049 0,0.688162 -0.558844,1.247005 -1.247005,1.247005 l -0.692781,0 0,1.755045 c 0,0.508038 0.415668,0.923706 0.923706,0.923706 l 1.755045,0 0,-0.692781 c 0,-0.688161 0.558843,-1.247005 1.2470048,-1.247005 0.6881624,0 1.2470044,0.558844 1.2470044,1.247005 l 0,0.692781 1.755045,0 c 0.508038,0 0.923706,-0.415668 0.923706,-0.923706 l 0,-1.847416 0.692781,0 c 0.637358,0 1.154635,-0.517276 1.154635,-1.154634 0,-0.637358 -0.517277,-1.1546339 -1.154635,-1.1546339 z"/></g></svg>