<svg xmlns="http://www.w3.org/2000/svg" xmlns:svg="http://www.w3.org/2000/svg" id="svg13826" width="68.165" height="66.143" version="1.1" viewBox="0 0 18.035 17.5"><metadata id="metadata13823"/><g id="layer1" transform="translate(-0.99262638,-1.174181)"><g id="g70" transform="matrix(1.0148887,0,0,1.0148887,16.902146,-2.698726)"><path id="path3055" d="m -6.8492015,4.2724668 a 1.1191255,1.1099671 0 0 0 -0.4288818,0.1085303 l -5.8524037,2.7963394 a 1.1191255,1.1099671 0 0 0 -0.605524,0.7529759 l -1.443828,6.2812846 a 1.1191255,1.1099671 0 0 0 0.151943,0.851028 1.1191255,1.1099671 0 0 0 0.06362,0.08832 l 4.0508,5.036555 a 1.1191255,1.1099671 0 0 0 0.874979,0.417654 l 6.4961011,-0.0015 a 1.1191255,1.1099671 0 0 0 0.8749788,-0.416906 L 1.3818872,15.149453 A 1.1191255,1.1099671 0 0 0 1.5981986,14.210104 L 0.15212657,7.9288154 A 1.1191255,1.1099671 0 0 0 -0.45339794,7.1758396 L -6.3065496,4.3809971 A 1.1191255,1.1099671 0 0 0 -6.8492015,4.2724668 Z" style="fill:#326ce5;fill-opacity:1;stroke:none;stroke-width:0;stroke-miterlimit:4;stroke-dasharray:none;stroke-opacity:1"/><path id="path3054-2-9" d="M -6.8523435,3.8176372 A 1.1814304,1.171762 0 0 0 -7.3044284,3.932904 l -6.1787426,2.9512758 a 1.1814304,1.171762 0 0 0 -0.639206,0.794891 l -1.523915,6.6308282 a 1.1814304,1.171762 0 0 0 0.160175,0.89893 1.1814304,1.171762 0 0 0 0.06736,0.09281 l 4.276094,5.317236 a 1.1814304,1.171762 0 0 0 0.92363,0.440858 l 6.8576188,-0.0015 a 1.1814304,1.171762 0 0 0 0.9236308,-0.44011 l 4.2745966,-5.317985 a 1.1814304,1.171762 0 0 0 0.228288,-0.990993 L 0.53894439,7.6775738 A 1.1814304,1.171762 0 0 0 -0.10026101,6.8834313 L -6.2790037,3.9321555 A 1.1814304,1.171762 0 0 0 -6.8523435,3.8176372 Z m 0.00299,0.4550789 a 1.1191255,1.1099671 0 0 1 0.5426517,0.1085303 l 5.85315169,2.7948425 A 1.1191255,1.1099671 0 0 1 0.15197811,7.9290648 L 1.598051,14.21035 a 1.1191255,1.1099671 0 0 1 -0.2163123,0.939348 l -4.0493032,5.037304 a 1.1191255,1.1099671 0 0 1 -0.8749789,0.416906 l -6.4961006,0.0015 a 1.1191255,1.1099671 0 0 1 -0.874979,-0.417652 l -4.0508,-5.036554 a 1.1191255,1.1099671 0 0 1 -0.06362,-0.08832 1.1191255,1.1099671 0 0 1 -0.151942,-0.851028 l 1.443827,-6.2812853 a 1.1191255,1.1099671 0 0 1 0.605524,-0.7529758 l 5.8524036,-2.7963395 a 1.1191255,1.1099671 0 0 1 0.4288819,-0.1085303 z" style="color:#000;font-style:normal;font-variant:normal;font-weight:400;font-stretch:normal;font-size:medium;line-height:normal;font-family:Sans;-inkscape-font-specification:Sans;text-indent:0;text-align:start;text-decoration:none;text-decoration-line:none;letter-spacing:normal;word-spacing:normal;text-transform:none;writing-mode:lr-tb;direction:ltr;baseline-shift:baseline;text-anchor:start;display:inline;overflow:visible;visibility:visible;fill:#fff;fill-opacity:1;fill-rule:nonzero;stroke:none;stroke-width:0;stroke-miterlimit:4;stroke-dasharray:none;marker:none;enable-background:accumulate"/></g><g id="g3350" transform="translate(0.09238746,0.63369956)"><path id="path1991" d="m 4.4949897,11.296104 2.9083301,0 0,2.041667 -2.9083301,0 z" style="fill:#fff;fill-rule:evenodd;stroke:none;stroke-width:.26458332;stroke-linecap:square;stroke-miterlimit:10"/><path id="path1993" d="m 8.4637406,11.296104 2.9083314,0 0,2.041667 -2.9083314,0 z" style="fill:#fff;fill-rule:evenodd;stroke:none;stroke-width:.26458332;stroke-linecap:square;stroke-miterlimit:10"/><path id="path2002" d="m 12.432492,11.296104 2.90833,0 0,2.041667 -2.90833,0 z" style="fill:#fff;fill-rule:evenodd;stroke:none;stroke-width:.26458332;stroke-linecap:square;stroke-miterlimit:10"/><path id="path2005" d="m 7.6137398,5.2435699 4.6083322,0 0,2.041667 -4.6083322,0 z" style="fill:#fff;fill-rule:evenodd;stroke:none;stroke-width:.26458332;stroke-linecap:square;stroke-miterlimit:10"/><g id="g2062" transform="matrix(0.70690292,0.70731059,-0.70731059,0.70690292,105.19939,231.56521)"><rect style="opacity:1;fill:#fff;fill-opacity:1;fill-rule:nonzero;stroke:none;stroke-width:.36763045;stroke-linecap:butt;stroke-linejoin:round;stroke-miterlimit:10;stroke-dasharray:none;stroke-dashoffset:13.00157547;stroke-opacity:1" id="rect2056" width=".652" height="2.909" x="-226.886" y="-89.589" ry="0"/><path style="opacity:1;fill:#fff;fill-opacity:1;fill-rule:nonzero;stroke:none;stroke-width:.57499999;stroke-linecap:butt;stroke-linejoin:round;stroke-miterlimit:10;stroke-dasharray:none;stroke-dashoffset:13.00157547;stroke-opacity:1" id="path2058" d="m -224.426,-89.870434 -1.52218,-1.221288 -1.52219,-1.221289 1.81876,-0.707609 1.81876,-0.70761 -0.29657,1.928898 z" transform="matrix(0.48870462,0.18767945,-0.18767945,0.48870462,-133.74171,0.21380206)"/></g><g id="g2068" transform="matrix(-0.70690292,0.70731059,0.70731059,0.70690292,-85.801537,231.5652)"><rect id="rect2064" width=".652" height="2.909" x="-226.886" y="-89.589" ry="0" style="opacity:1;fill:#fff;fill-opacity:1;fill-rule:nonzero;stroke:none;stroke-width:.36763045;stroke-linecap:butt;stroke-linejoin:round;stroke-miterlimit:10;stroke-dasharray:none;stroke-dashoffset:13.00157547;stroke-opacity:1"/><path id="path2066" d="m -224.426,-89.870434 -1.52218,-1.221288 -1.52219,-1.221289 1.81876,-0.707609 1.81876,-0.70761 -0.29657,1.928898 z" transform="matrix(0.48870462,0.18767945,-0.18767945,0.48870462,-133.74171,0.21380206)" style="opacity:1;fill:#fff;fill-opacity:1;fill-rule:nonzero;stroke:none;stroke-width:.57499999;stroke-linecap:butt;stroke-linejoin:round;stroke-miterlimit:10;stroke-dasharray:none;stroke-dashoffset:13.00157547;stroke-opacity:1"/></g><rect id="rect2070" width=".652" height="2.249" x="-10.223" y="7.883" ry="0" transform="matrix(-0.99998847,-0.00480149,-0.00803668,0.99996771,0,0)" style="opacity:1;fill:#fff;fill-opacity:1;fill-rule:nonzero;stroke:none;stroke-width:.32321024;stroke-linecap:butt;stroke-linejoin:round;stroke-miterlimit:10;stroke-dasharray:none;stroke-dashoffset:13.00157547;stroke-opacity:1"/><path id="path2073" d="m -224.426,-89.870434 -1.52218,-1.221288 -1.52219,-1.221289 1.81876,-0.707609 1.81876,-0.70761 -0.29657,1.928898 z" transform="matrix(-0.48986104,0.18464002,0.18464002,0.48986104,-83.541566,96.494378)" style="opacity:1;fill:#fff;fill-opacity:1;fill-rule:nonzero;stroke:none;stroke-width:.57499999;stroke-linecap:butt;stroke-linejoin:round;stroke-miterlimit:10;stroke-dasharray:none;stroke-dashoffset:13.00157547;stroke-opacity:1"/></g></g></svg>