<svg xmlns="http://www.w3.org/2000/svg" xmlns:svg="http://www.w3.org/2000/svg" id="svg13826" width="68.165" height="66.143" version="1.1" viewBox="0 0 18.035 17.5"><metadata id="metadata13823"/><g id="layer1" transform="translate(-0.99262638,-1.174181)"><g id="g70" transform="matrix(1.0148887,0,0,1.0148887,16.902146,-2.698726)"><path id="path3055" d="m -6.8492015,4.2724668 a 1.1191255,1.1099671 0 0 0 -0.4288818,0.1085303 l -5.8524037,2.7963394 a 1.1191255,1.1099671 0 0 0 -0.605524,0.7529759 l -1.443828,6.2812846 a 1.1191255,1.1099671 0 0 0 0.151943,0.851028 1.1191255,1.1099671 0 0 0 0.06362,0.08832 l 4.0508,5.036555 a 1.1191255,1.1099671 0 0 0 0.874979,0.417654 l 6.4961011,-0.0015 a 1.1191255,1.1099671 0 0 0 0.8749788,-0.416906 L 1.3818872,15.149453 A 1.1191255,1.1099671 0 0 0 1.5981986,14.210104 L 0.15212657,7.9288154 A 1.1191255,1.1099671 0 0 0 -0.45339794,7.1758396 L -6.3065496,4.3809971 A 1.1191255,1.1099671 0 0 0 -6.8492015,4.2724668 Z" style="fill:#326ce5;fill-opacity:1;stroke:none;stroke-width:0;stroke-miterlimit:4;stroke-dasharray:none;stroke-opacity:1"/><path id="path3054-2-9" d="M -6.8523435,3.8176372 A 1.1814304,1.171762 0 0 0 -7.3044284,3.932904 l -6.1787426,2.9512758 a 1.1814304,1.171762 0 0 0 -0.639206,0.794891 l -1.523915,6.6308282 a 1.1814304,1.171762 0 0 0 0.160175,0.89893 1.1814304,1.171762 0 0 0 0.06736,0.09281 l 4.276094,5.317236 a 1.1814304,1.171762 0 0 0 0.92363,0.440858 l 6.8576188,-0.0015 a 1.1814304,1.171762 0 0 0 0.9236308,-0.44011 l 4.2745966,-5.317985 a 1.1814304,1.171762 0 0 0 0.228288,-0.990993 L 0.53894439,7.6775738 A 1.1814304,1.171762 0 0 0 -0.10026101,6.8834313 L -6.2790037,3.9321555 A 1.1814304,1.171762 0 0 0 -6.8523435,3.8176372 Z m 0.00299,0.4550789 a 1.1191255,1.1099671 0 0 1 0.5426517,0.1085303 l 5.85315169,2.7948425 A 1.1191255,1.1099671 0 0 1 0.15197811,7.9290648 L 1.598051,14.21035 a 1.1191255,1.1099671 0 0 1 -0.2163123,0.939348 l -4.0493032,5.037304 a 1.1191255,1.1099671 0 0 1 -0.8749789,0.416906 l -6.4961006,0.0015 a 1.1191255,1.1099671 0 0 1 -0.874979,-0.417652 l -4.0508,-5.036554 a 1.1191255,1.1099671 0 0 1 -0.06362,-0.08832 1.1191255,1.1099671 0 0 1 -0.151942,-0.851028 l 1.443827,-6.2812853 a 1.1191255,1.1099671 0 0 1 0.605524,-0.7529758 l 5.8524036,-2.7963395 a 1.1191255,1.1099671 0 0 1 0.4288819,-0.1085303 z" style="color:#000;font-style:normal;font-variant:normal;font-weight:400;font-stretch:normal;font-size:medium;line-height:normal;font-family:Sans;-inkscape-font-specification:Sans;text-indent:0;text-align:start;text-decoration:none;text-decoration-line:none;letter-spacing:normal;word-spacing:normal;text-transform:none;writing-mode:lr-tb;direction:ltr;baseline-shift:baseline;text-anchor:start;display:inline;overflow:visible;visibility:visible;fill:#fff;fill-opacity:1;fill-rule:nonzero;stroke:none;stroke-width:0;stroke-miterlimit:4;stroke-dasharray:none;marker:none;enable-background:accumulate"/></g><g id="g1901" transform="matrix(1.3480498,0,0,1.3480498,461.39111,77.03907)"><path id="path1848" d="m -1268.627,-202.22852 -10.623,3.08008 10.623,3.08203 3.1563,-0.91601 c 1.4424,-1.33758 3.3634,-2.16602 5.4668,-2.16602 0.5107,0 1.0088,0.054 1.4941,0.14649 l 0.5059,-0.14649 z" transform="scale(0.26458333,0.26458333)" style="fill:#fff;fill-rule:evenodd;stroke:none;stroke-width:.77621555;stroke-linecap:square;stroke-miterlimit:10"/><path id="path1850" d="m -1279.25,-197.96875 0,11.30273 8.8418,4.89649 0,-3.4707 c 0,-1.05099 0.4282,-1.91553 1.0801,-2.61524 l 0.025,-7.1543 z" transform="scale(0.26458333,0.26458333)" style="fill:#fff;fill-rule:evenodd;stroke:none;stroke-width:.77621555;stroke-linecap:square;stroke-miterlimit:10"/><path id="path1852" d="m -1266.8301,-195.34375 -1.1211,0.33398 0.01,2.53321 c 0.1843,-1.03627 0.568,-2.00466 1.1113,-2.86719 z m 6.8262,2.99219 c -0.7386,0 -1.2734,0.53483 -1.2734,1.27344 l 0,1.27148 2.5449,0 0,-1.27148 c 0,-0.73857 -0.533,-1.27344 -1.2715,-1.27344 z" transform="scale(0.26458333,0.26458333)" style="fill:#fff;fill-rule:evenodd;stroke:none;stroke-width:.77621555;stroke-linecap:square;stroke-miterlimit:10"/><path id="path7594-3" d="m -329.23047,-49.712891 c -0.59817,0 -1.08398,0.485821 -1.08398,1.083985 l 0,0.65039 c -0.2384,0 -0.4336,0.195197 -0.4336,0.433594 l 0,1.734375 c 0,0.238401 0.1952,0.431641 0.4336,0.431641 l 2.16797,0 c 0.2384,0 0.43359,-0.19324 0.43359,-0.431641 l 0,-1.734375 c 0,-0.238397 -0.19519,-0.433594 -0.43359,-0.433594 l 0,-0.65039 c 0,-0.598164 -0.48583,-1.083985 -1.08399,-1.083985 z m 0,0.433594 c 0.35976,0 0.65039,0.290624 0.65039,0.650391 l 0,0.65039 -1.30078,0 0,-0.65039 c 0,-0.359767 0.29062,-0.650391 0.65039,-0.650391 z" transform="matrix(1.4250713,0,0,1.4250713,135.80272,18.601444)" style="fill:#fff;fill-opacity:1;stroke-width:.4190996"/></g></g></svg>