<svg xmlns="http://www.w3.org/2000/svg" xmlns:svg="http://www.w3.org/2000/svg" id="svg13826" width="68.165" height="66.143" version="1.1" viewBox="0 0 18.035 17.5"><metadata id="metadata13823"/><g id="layer1" transform="translate(-0.99262638,-1.174181)"><g id="g70" transform="matrix(1.0148887,0,0,1.0148887,16.902146,-2.698726)"><path id="path3055" d="m -6.8492015,4.2724668 a 1.1191255,1.1099671 0 0 0 -0.4288818,0.1085303 l -5.8524037,2.7963394 a 1.1191255,1.1099671 0 0 0 -0.605524,0.7529759 l -1.443828,6.2812846 a 1.1191255,1.1099671 0 0 0 0.151943,0.851028 1.1191255,1.1099671 0 0 0 0.06362,0.08832 l 4.0508,5.036555 a 1.1191255,1.1099671 0 0 0 0.874979,0.417654 l 6.4961011,-0.0015 a 1.1191255,1.1099671 0 0 0 0.8749788,-0.416906 L 1.3818872,15.149453 A 1.1191255,1.1099671 0 0 0 1.5981986,14.210104 L 0.15212657,7.9288154 A 1.1191255,1.1099671 0 0 0 -0.45339794,7.1758396 L -6.3065496,4.3809971 A 1.1191255,1.1099671 0 0 0 -6.8492015,4.2724668 Z" style="fill:#326ce5;fill-opacity:1;stroke:none;stroke-width:0;stroke-miterlimit:4;stroke-dasharray:none;stroke-opacity:1"/><path id="path3054-2-9" d="M -6.8523435,3.8176372 A 1.1814304,1.171762 0 0 0 -7.3044284,3.932904 l -6.1787426,2.9512758 a 1.1814304,1.171762 0 0 0 -0.639206,0.794891 l -1.523915,6.6308282 a 1.1814304,1.171762 0 0 0 0.160175,0.89893 1.1814304,1.171762 0 0 0 0.06736,0.09281 l 4.276094,5.317236 a 1.1814304,1.171762 0 0 0 0.92363,0.440858 l 6.8576188,-0.0015 a 1.1814304,1.171762 0 0 0 0.9236308,-0.44011 l 4.2745966,-5.317985 a 1.1814304,1.171762 0 0 0 0.228288,-0.990993 L 0.53894439,7.6775738 A 1.1814304,1.171762 0 0 0 -0.10026101,6.8834313 L -6.2790037,3.9321555 A 1.1814304,1.171762 0 0 0 -6.8523435,3.8176372 Z m 0.00299,0.4550789 a 1.1191255,1.1099671 0 0 1 0.5426517,0.1085303 l 5.85315169,2.7948425 A 1.1191255,1.1099671 0 0 1 0.15197811,7.9290648 L 1.598051,14.21035 a 1.1191255,1.1099671 0 0 1 -0.2163123,0.939348 l -4.0493032,5.037304 a 1.1191255,1.1099671 0 0 1 -0.8749789,0.416906 l -6.4961006,0.0015 a 1.1191255,1.1099671 0 0 1 -0.874979,-0.417652 l -4.0508,-5.036554 a 1.1191255,1.1099671 0 0 1 -0.06362,-0.08832 1.1191255,1.1099671 0 0 1 -0.151942,-0.851028 l 1.443827,-6.2812853 a 1.1191255,1.1099671 0 0 1 0.605524,-0.7529758 l 5.8524036,-2.7963395 a 1.1191255,1.1099671 0 0 1 0.4288819,-0.1085303 z" style="color:#000;font-style:normal;font-variant:normal;font-weight:400;font-stretch:normal;font-size:medium;line-height:normal;font-family:Sans;-inkscape-font-specification:Sans;text-indent:0;text-align:start;text-decoration:none;text-decoration-line:none;letter-spacing:normal;word-spacing:normal;text-transform:none;writing-mode:lr-tb;direction:ltr;baseline-shift:baseline;text-anchor:start;display:inline;overflow:visible;visibility:visible;fill:#fff;fill-opacity:1;fill-rule:nonzero;stroke:none;stroke-width:0;stroke-miterlimit:4;stroke-dasharray:none;marker:none;enable-background:accumulate"/></g><path style="fill:#326ce5;fill-opacity:1;fill-rule:evenodd;stroke:none;stroke-width:.20757428;stroke-linecap:square;stroke-miterlimit:10" id="path6473" d="m 5.4198595,10.526751 0,0 c 0,0.376676 2.10346,0.682033 4.6982195,0.682033 2.594751,0 4.69821,-0.305357 4.69821,-0.682033 l 0,1.845045 c 0,0.376674 -2.103459,0.68203 -4.69821,0.68203 -2.5947595,0 -4.6982195,-0.305356 -4.6982195,-0.68203 z"/><path style="fill:#326ce5;fill-opacity:1;fill-rule:evenodd;stroke:none;stroke-width:.20757428;stroke-linecap:square;stroke-miterlimit:10" id="path6475" d="m 5.4198595,10.526751 0,0 c 0,-0.376674 2.10346,-0.6820334 4.6982195,-0.6820334 2.594751,0 4.69821,0.3053594 4.69821,0.6820334 l 0,0 c 0,0.376676 -2.103459,0.682033 -4.69821,0.682033 -2.5947595,0 -4.6982195,-0.305357 -4.6982195,-0.682033 z"/><path style="fill:#fff;fill-opacity:1;fill-rule:evenodd;stroke:#eee;stroke-width:.20757429;stroke-linecap:square;stroke-miterlimit:10;stroke-opacity:1" id="path6479" d="m 5.4198595,8.6089656 0,0 c 0,0.376676 2.10346,0.6820319 4.6982195,0.6820319 2.594751,0 4.69821,-0.3053559 4.69821,-0.6820319 l 0,1.8450454 c 0,0.376674 -2.103459,0.68203 -4.69821,0.68203 -2.5947595,0 -4.6982195,-0.305356 -4.6982195,-0.68203 z"/><path style="fill:#326ce5;fill-opacity:1;fill-rule:evenodd;stroke:none;stroke-width:.20757428;stroke-linecap:square;stroke-miterlimit:10" id="path6481" d="m 5.4198595,8.2170433 0,0 c 0,-0.376675 2.10346,-0.6820325 4.6982195,-0.6820325 2.594751,0 4.69821,0.3053575 4.69821,0.6820325 l 0,0 c 0,0.376676 -2.103459,0.6820319 -4.69821,0.6820319 -2.5947595,0 -4.6982195,-0.3053559 -4.6982195,-0.6820319 z"/><path id="path6487" d="m 5.4199585,5.6616598 0,0 c 0,-0.376674 2.103456,-0.682032 4.6982235,-0.682032 2.594746,0 4.698212,0.305358 4.698212,0.682032 l 0,0 c 0,0.376676 -2.103466,0.682032 -4.698212,0.682032 -2.5947675,0 -4.6982235,-0.305356 -4.6982235,-0.682032 z" style="fill:#326ce5;fill-opacity:1;fill-rule:evenodd;stroke:none;stroke-width:.20757428;stroke-linecap:square;stroke-miterlimit:10"/><g id="g3347" transform="translate(-0.10787059,0.73050426)"><path style="fill:#326ce5;fill-opacity:1;fill-rule:evenodd;stroke:none;stroke-width:.20757428;stroke-linecap:square;stroke-miterlimit:10" id="path6485" d="m 5.4199585,5.6616598 0,0 c 0,0.376676 2.103456,0.682032 4.6982235,0.682032 2.594746,0 4.698212,-0.305356 4.698212,-0.682032 l 0,1.845045 c 0,0.3766745 -2.103466,0.6820305 -4.698212,0.6820305 -2.5947675,0 -4.6982235,-0.305356 -4.6982235,-0.6820305 z"/><g id="g3348"><path style="fill:none;fill-rule:evenodd;stroke:#fff;stroke-width:.41499999;stroke-linecap:butt;stroke-linejoin:round;stroke-miterlimit:10;stroke-dasharray:1.66000002,.415;stroke-dashoffset:0;stroke-opacity:1" id="path6477" d="m 14.816289,10.881103 0,0 c 0,0.376676 -2.103459,0.682033 -4.69821,0.682033 -2.5947495,0 -4.6982195,-0.305357 -4.6982195,-0.682033 l 0,0 c 0,-0.376675 2.10347,-0.682031 4.6982195,-0.682031 2.594751,0 4.69821,0.305356 4.69821,0.682031 l 0,1.845046 c 0,0.376673 -2.103459,0.682029 -4.69821,0.682029 -2.5947495,0 -4.6982195,-0.305356 -4.6982195,-0.682029 l 0,-1.845046"/><path style="fill:none;fill-rule:evenodd;stroke:#fff;stroke-width:.41499999;stroke-linecap:butt;stroke-linejoin:round;stroke-miterlimit:10;stroke-dasharray:none;stroke-opacity:1" id="path6483" d="m 14.816289,7.8640013 0,0 c 0,0.376676 -2.103459,0.6820319 -4.69821,0.6820319 -2.5947495,0 -4.6982195,-0.3053559 -4.6982195,-0.6820319 l 0,0 c 0,-0.376675 2.10347,-0.6820325 4.6982195,-0.6820325 2.594751,0 4.69821,0.3053575 4.69821,0.6820325 l 0,1.8450457 c 0,0.376674 -2.103459,0.68203 -4.69821,0.68203 -2.5947495,0 -4.6982195,-0.305356 -4.6982195,-0.68203 l 0,-1.8450457"/><path id="path6489" d="m 14.816394,5.6616598 0,0 c 0,0.376676 -2.103466,0.682032 -4.698212,0.682032 -2.5947575,0 -4.6982235,-0.305356 -4.6982235,-0.682032 l 0,0 c 0,-0.376674 2.103466,-0.682032 4.6982235,-0.682032 2.594746,0 4.698212,0.305358 4.698212,0.682032 l 0,1.845045 c 0,0.3766745 -2.103466,0.6820305 -4.698212,0.6820305 -2.5947575,0 -4.6982235,-0.305356 -4.6982235,-0.6820305 l 0,-1.845045" style="fill:none;fill-rule:evenodd;stroke:#fff;stroke-width:.41514859;stroke-linecap:butt;stroke-linejoin:round;stroke-miterlimit:10;stroke-dasharray:1.66059433,.41514858;stroke-dashoffset:0;stroke-opacity:1"/></g></g></g></svg>